<?xml version="1.0" encoding="utf-8"?>
<!-- Generator: Adobe Illustrator 25.4.1, SVG Export Plug-In . SVG Version: 6.00 Build 0)  -->
<svg version="1.1" id="Layer_1" xmlns="http://www.w3.org/2000/svg" xmlns:xlink="http://www.w3.org/1999/xlink" x="0px" y="0px"
	 viewBox="0 0 844.1 305" style="enable-background:new 0 0 844.1 305;" xml:space="preserve">
<style type="text/css">
	.st0{fill:url(#SVGID_1_);}
	.st1{fill:url(#SVGID_00000087373073420132966810000016742146201716075401_);}
	.st2{fill:url(#SVGID_00000063629512901434944490000016472474069646452118_);}
	.st3{fill:url(#SVGID_00000018957866036345607630000013398875765888509847_);}
	.st4{fill:#393939;}
</style>
<linearGradient id="SVGID_1_" gradientUnits="userSpaceOnUse" x1="194.5588" y1="293.7501" x2="176.5288" y2="76.5501" gradientTransform="matrix(1 0 0 -1 0 308)">
	<stop  offset="0" style="stop-color:#919191"/>
	<stop  offset="1" style="stop-color:#393939"/>
</linearGradient>
<path class="st0" d="M231.9,26.9c0,0-71.3,6.5-58.5,112.6c10,83.1-35.5,94.5-35.5,94.5s79.8-10.9,79.2-90.2S197.2,44.3,231.9,26.9z"
	/>
<linearGradient id="SVGID_00000061431149671474678800000014139372416902628031_" gradientUnits="userSpaceOnUse" x1="109.6242" y1="215.5887" x2="151.4242" y2="99.1987" gradientTransform="matrix(1 0 0 -1 0 308)">
	<stop  offset="0" style="stop-color:#27B9B3"/>
	<stop  offset="1" style="stop-color:#7DCA9F"/>
</linearGradient>
<path style="fill:url(#SVGID_00000061431149671474678800000014139372416902628031_);" d="M101,54.8c0,0-40.6,36.9,16.1,95.9
	C161.6,197,139,225,139,225s43.8-43.5,6.9-91.8S87.7,81.5,101,54.8z"/>
<linearGradient id="SVGID_00000026860654736309051780000002242515151160373902_" gradientUnits="userSpaceOnUse" x1="59.8491" y1="129.005" x2="134.9284" y2="129.005" gradientTransform="matrix(1 0 0 -1 0 308)">
	<stop  offset="0" style="stop-color:#27B9B3"/>
	<stop  offset="1" style="stop-color:#7DCA9F"/>
</linearGradient>
<path style="fill:url(#SVGID_00000026860654736309051780000002242515151160373902_);" d="M62.2,130.2c0,0-15.9,34.1,35.6,56.4
	c40.4,17.4,33.5,41.2,33.5,41.2s16.2-39.1-19.9-59.9S60.9,150.6,62.2,130.2z"/>
<linearGradient id="SVGID_00000103248128815400501520000012235983303223885743_" gradientUnits="userSpaceOnUse" x1="53.61" y1="95.56" x2="124.56" y2="95.56" gradientTransform="matrix(1 0 0 -1 0 308)">
	<stop  offset="0" style="stop-color:#27B9B3"/>
	<stop  offset="1" style="stop-color:#7DCA9F"/>
</linearGradient>
<path style="fill:url(#SVGID_00000103248128815400501520000012235983303223885743_);" d="M53.6,194.8c0,0,1.4,24.9,38.5,21.8
	c29.1-2.4,32.5,13.6,32.5,13.6s-2.8-27.9-30.4-28.8S59.2,207.1,53.6,194.8z"/>
<path class="st4" d="M284.7,131.5c4,0,8,0.3,11.9,0.9c3.2,0.4,6.2,1.5,9,3.1c2.4,1.5,4.4,3.7,5.6,6.3c1.4,3.2,2.1,6.7,2,10.2
	c0,2.4-0.4,4.9-1.1,7.2c-0.7,2.3-1.8,4.4-3.3,6.3c-1.4,1.8-3.2,3.4-5.1,4.6c-2.1,1.3-4.5,2.1-6.9,2.3v0.2c3.9,1,7.3,3.3,9.6,6.6
	c2.3,3.3,3.4,7.2,3.4,11.2c0.1,4.3-0.9,8.6-2.8,12.5c-1.8,3.5-4.3,6.6-7.4,9c-3.2,2.4-6.8,4.3-10.7,5.4c-4.1,1.2-8.4,1.9-12.6,1.8
	h-46.6l18.3-87.6L284.7,131.5z M275.4,204.1c3.9,0.2,7.8-1.1,10.9-3.6c2.8-2.4,4.2-5.9,4.2-10.6c0.1-1.9-0.4-3.8-1.4-5.4
	c-0.9-1.3-2.2-2.3-3.6-3c-1.5-0.7-3.2-1.1-4.9-1.3c-1.8-0.2-3.5-0.2-5.3-0.2h-18.9l-5.1,24L275.4,204.1z M280.9,167
	c3.3,0.1,6.5-0.9,9.1-2.9c2.6-1.9,3.9-4.8,3.9-8.6c0-3.4-0.9-5.8-2.8-7.1c-2.2-1.4-4.8-2-7.4-1.9h-20.4l-4.3,20.5H280.9z"/>
<path class="st4" d="M355.9,131.5l-15,71.4h42.3l-3.4,16.2h-61.6l18.3-87.6H355.9z"/>
<path class="st4" d="M469.4,131.5l-3.6,16.2h-42.9l-4.3,20.2h37.5l-3.2,15h-37.4l-7.7,36.2h-19.1l18.4-87.6H469.4z"/>
<path d="M499,136.1l-6.6,30.9h-4.6l6.5-30.9h-11.7l0.8-3.9h28.1l-0.9,3.9L499,136.1z"/>
<path d="M512.1,141.8l-1.2,5.4h0.1c0.9-1.7,2.2-3.1,3.7-4.3c1.6-1.2,3.5-1.8,5.4-1.7c0.2,0,0.5,0,0.7-0.1c0.2,0,0.5,0,0.7,0.1
	l-1,4.4c-0.2,0-0.4-0.1-0.6-0.1h-0.6h-1.3c-0.4,0-0.8,0.1-1.2,0.2c-1.1,0.3-2.2,0.8-3,1.5c-0.9,0.7-1.7,1.6-2.3,2.6
	c-0.6,0.9-1,1.8-1.3,2.9c-0.3,1.1-0.6,2.1-0.8,3.1l-2.4,11.2H503l5.2-25.2L512.1,141.8z"/>
<path d="M523.3,145.8c0.7-1,1.5-1.9,2.5-2.6c1-0.7,2.1-1.2,3.3-1.5c1.3-0.3,2.6-0.5,3.9-0.5c1.2,0,2.4,0.1,3.5,0.3
	c1,0.2,2,0.5,2.9,1c0.8,0.5,1.5,1.2,2,2c0.5,1,0.8,2.1,0.8,3.1c0,0.8-0.1,1.6-0.3,2.3c-0.2,0.8-0.3,1.6-0.5,2.3l-1.6,6.9
	c-0.1,0.5-0.2,1.1-0.4,1.8c-0.2,0.6-0.3,1.2-0.3,1.9c0,0.4,0.1,0.9,0.3,1.2c0.2,0.2,0.6,0.4,0.9,0.3c0.2,0,0.4,0,0.7-0.1l0.7-0.2
	L541,167c-0.4,0.2-0.8,0.3-1.2,0.4c-0.4,0.1-0.9,0.2-1.3,0.2c-1,0.1-1.9-0.3-2.6-0.9c-0.6-0.7-0.9-1.7-0.7-2.6l-0.1-0.1
	c-0.9,1.1-2,2.1-3.3,2.7c-1.6,0.7-3.4,1-5.2,0.9c-1,0-2-0.1-3-0.4c-0.9-0.2-1.7-0.6-2.4-1.2c-0.7-0.6-1.3-1.3-1.6-2.2
	c-0.4-1-0.7-2.2-0.6-3.3c-0.1-1.5,0.3-3.1,1.2-4.4c0.8-1,1.8-1.8,3-2.4c1.3-0.6,2.7-0.9,4.1-1.1c1.5-0.2,2.9-0.4,4.3-0.5
	c1.1-0.1,2-0.2,2.8-0.3c0.7-0.1,1.4-0.3,2-0.6c0.5-0.2,0.9-0.6,1.1-1.1c0.3-0.6,0.4-1.3,0.4-2c0-0.6-0.1-1.2-0.5-1.6
	c-0.3-0.4-0.7-0.8-1.2-1c-0.5-0.3-1.1-0.4-1.6-0.5c-0.6-0.1-1.2-0.1-1.7-0.1c-0.8,0-1.6,0.1-2.3,0.2c-0.7,0.1-1.4,0.4-2.1,0.8
	c-0.6,0.4-1.1,0.8-1.6,1.4c-0.4,0.6-0.7,1.3-0.8,2.1H522C522.2,148.1,522.6,146.9,523.3,145.8z M524.5,163.1c0.9,0.6,2,0.9,3.2,0.9
	c3.3,0,5.6-1.1,7.1-3.3c0.7-0.9,1.1-2,1.4-3.1c0.2-1.1,0.5-2.2,0.8-3.4h-0.1c-0.7,0.5-1.4,0.8-2.2,0.9c-0.9,0.2-1.8,0.3-2.8,0.4
	s-2,0.2-3,0.4c-0.9,0.1-1.9,0.4-2.8,0.7c-0.8,0.3-1.5,0.8-2,1.4c-0.6,0.7-0.9,1.6-0.8,2.5C523.1,161.5,523.6,162.5,524.5,163.1z"/>
<path d="M553.8,141.8l-0.8,3.8h0.1c1-1.4,2.4-2.6,4-3.3c1.6-0.7,3.3-1.1,5-1.1c2.4,0,4.1,0.5,5.3,1.6s1.7,2.7,1.7,4.9
	c0,0.7-0.1,1.4-0.2,2.1c-0.1,0.9-0.3,1.8-0.5,2.8l-3.1,14.4h-4.1l3.2-14.7c0-0.3,0.1-0.6,0.1-0.9s0.1-0.7,0.2-1.1s0.1-0.7,0.2-1.1
	c0-0.3,0.1-0.6,0.1-0.9c0.1-1-0.4-2.1-1.3-2.7c-0.9-0.6-2-0.9-3.1-0.9c-1.2,0-2.3,0.3-3.4,0.8c-1.1,0.5-2,1.2-2.8,2.1
	c-0.7,0.7-1.3,1.5-1.8,2.4c-0.4,0.9-0.8,1.9-1,2.9l-3,14h-4.1l5.3-25.2L553.8,141.8z"/>
<path d="M587.7,146c-1.1-0.7-2.4-1.1-3.8-1.1c-0.6,0-1.3,0-1.9,0.1c-0.6,0.1-1.2,0.3-1.7,0.5c-0.5,0.2-0.9,0.6-1.2,1
	c-0.3,0.5-0.5,1-0.5,1.6c0,0.6,0.2,1.1,0.6,1.5c0.4,0.5,1,0.9,1.5,1.2c0.7,0.4,1.4,0.7,2.1,1l2.4,0.9c0.8,0.4,1.7,0.8,2.5,1.2
	c0.8,0.4,1.5,0.9,2.1,1.4c0.6,0.5,1.1,1.2,1.5,1.9c0.4,0.8,0.6,1.7,0.6,2.6c0,1.3-0.3,2.5-0.9,3.6c-0.6,1-1.4,1.8-2.4,2.4
	c-1,0.6-2.1,1.1-3.3,1.3c-1.2,0.3-2.4,0.4-3.7,0.4c-1.3,0-2.7-0.1-4-0.4c-1.2-0.2-2.2-0.7-3.2-1.4c-0.9-0.7-1.6-1.6-2.1-2.6
	c-0.6-1.3-0.8-2.7-0.8-4.1h4.1c-0.1,0.8,0.1,1.6,0.4,2.3c0.3,0.6,0.8,1.1,1.4,1.5c0.6,0.4,1.4,0.7,2.1,0.8c0.8,0.2,1.7,0.2,2.5,0.2
	c0.7,0,1.4-0.1,2-0.2c0.6-0.1,1.3-0.3,1.8-0.6c0.5-0.3,1-0.7,1.3-1.2c0.4-0.5,0.5-1.2,0.5-1.8c0-0.6-0.2-1.2-0.6-1.6
	c-0.4-0.5-1-0.9-1.5-1.2c-0.7-0.4-1.4-0.7-2.1-1c-0.8-0.3-1.6-0.6-2.4-1s-1.7-0.7-2.5-1.1c-0.8-0.4-1.5-0.8-2.2-1.4
	c-0.7-0.5-1.2-1.2-1.6-1.9c-0.4-0.8-0.6-1.6-0.6-2.5c0-1.1,0.3-2.2,0.8-3.1c0.5-0.9,1.3-1.7,2.1-2.3c0.9-0.6,1.9-1.1,3-1.4
	c1.1-0.3,2.3-0.5,3.4-0.5c1.2,0,2.3,0.1,3.5,0.4c1.1,0.3,2.1,0.7,3,1.4c0.9,0.6,1.7,1.5,2.2,2.5c0.6,1.2,0.9,2.4,0.8,3.7h-4.1
	C589.3,148,588.8,146.7,587.7,146z"/>
<path d="M604.2,141.8l-0.9,3.6h0.1c1-1.4,2.3-2.5,3.8-3.3c1.4-0.6,3-0.9,4.5-0.9c1.5,0,2.9,0.2,4.3,0.8c2.4,1,4.2,2.9,5,5.4
	c0.4,1.4,0.6,2.8,0.6,4.2c0,1.9-0.3,3.9-1,5.7c-0.6,1.9-1.5,3.6-2.7,5.1c-1.2,1.5-2.7,2.8-4.4,3.7c-1.8,1-3.9,1.5-5.9,1.4
	c-0.8,0-1.6-0.1-2.4-0.2c-0.8-0.1-1.6-0.4-2.3-0.7c-0.7-0.3-1.4-0.8-2-1.4c-0.6-0.6-1-1.3-1.2-2.1h-0.1l-2.7,13.5h-4l7.3-34.8H604.2
	z M616,146.7c-1-1.2-2.7-1.8-5-1.8c-1.5,0-3,0.4-4.2,1.2c-1.2,0.8-2.3,1.8-3.1,3.1c-0.8,1.2-1.5,2.6-1.9,4.1
	c-0.4,1.4-0.6,2.8-0.7,4.2c-0.1,1.7,0.5,3.4,1.6,4.7c1.2,1.3,2.9,2,4.7,1.9c1.5,0,3-0.4,4.3-1.1c1.2-0.8,2.3-1.8,3.1-2.9
	c0.9-1.2,1.5-2.6,1.9-4c0.4-1.4,0.6-2.8,0.6-4.3C617.6,149.8,617.1,148.1,616,146.7z"/>
<path d="M626,151.1c0.6-1.9,1.5-3.6,2.8-5.1c1.2-1.5,2.7-2.7,4.4-3.5c1.8-0.9,3.9-1.4,5.9-1.3c3.4,0,6,0.9,7.8,2.7s2.7,4.4,2.7,7.8
	c0,2-0.3,4-0.9,5.9c-0.6,1.9-1.5,3.6-2.7,5.1c-1.2,1.5-2.7,2.7-4.4,3.5c-1.8,0.9-3.9,1.4-5.9,1.3c-1.5,0-3-0.2-4.5-0.8
	c-2.5-0.9-4.5-3-5.4-5.5c-0.5-1.3-0.7-2.8-0.7-4.2C625.1,155,625.4,153,626,151.1z M631,162c1.4,1.3,3.3,2,5.2,1.9
	c1.4,0,2.8-0.4,4-1.2c1.2-0.8,2.2-1.8,2.9-3c0.8-1.2,1.4-2.5,1.8-3.9c0.4-1.3,0.6-2.6,0.6-3.9c0-0.9-0.1-1.9-0.4-2.8
	c-0.5-1.7-1.7-3.1-3.3-3.8c-0.9-0.4-2-0.6-3-0.6c-1.5,0-2.9,0.4-4.2,1.2c-1.2,0.8-2.2,1.8-3,3c-0.8,1.2-1.4,2.5-1.8,3.9
	c-0.4,1.3-0.6,2.7-0.6,4.1C629.1,158.8,629.8,160.6,631,162z"/>
<path d="M661.2,141.8l-1.2,5.4h0.1c0.9-1.7,2.2-3.1,3.7-4.3c1.6-1.2,3.5-1.8,5.4-1.7c0.2,0,0.5,0,0.7-0.1c0.2,0,0.5,0,0.7,0.1
	l-1,4.4c-0.2,0-0.4-0.1-0.6-0.1h-0.6h-1.3c-0.4,0-0.8,0.1-1.2,0.2c-1.1,0.3-2.1,0.8-3,1.5c-0.9,0.7-1.7,1.6-2.3,2.6
	c-0.6,0.9-1,1.8-1.3,2.9c-0.3,1.1-0.6,2.1-0.8,3.1l-2.4,11.2h-4.1l5.2-25.2L661.2,141.8z"/>
<path d="M684.3,141.8l-0.8,3.7h-5l-3.1,14.8c0,0.3-0.1,0.6-0.1,0.8c0,0.3,0,0.6,0,0.8c-0.1,0.6,0.2,1.1,0.8,1.3
	c0.5,0.3,1.1,0.4,1.7,0.4c0.4,0,0.8,0,1.2-0.1c0.4-0.1,0.8-0.2,1.2-0.3l-0.7,3.8c-0.5,0.1-1,0.1-1.5,0.2c-0.5,0.1-1,0.1-1.5,0.1
	c-0.7,0-1.5-0.1-2.2-0.2c-0.6-0.1-1.2-0.3-1.8-0.6c-0.5-0.3-0.9-0.7-1.2-1.2c-0.3-0.6-0.5-1.3-0.5-2c0-0.3,0-0.7,0.1-1
	c0-0.3,0.1-0.7,0.2-1.1l3.3-15.7h-4.2l0.8-3.7h4.2l1.6-7.5h4.2l-1.6,7.5L684.3,141.8z"/>
<path d="M687.8,145.8c0.6-1,1.5-1.9,2.5-2.6c1-0.7,2.1-1.2,3.3-1.5c1.3-0.3,2.6-0.5,3.8-0.5c1.2,0,2.4,0.1,3.5,0.3
	c1,0.2,2,0.5,2.9,1c0.8,0.5,1.5,1.2,2,2c0.5,1,0.8,2.1,0.8,3.1c0,0.8-0.1,1.6-0.3,2.3c-0.2,0.8-0.3,1.6-0.5,2.3l-1.6,6.9
	c-0.1,0.5-0.2,1.1-0.4,1.8c-0.2,0.6-0.3,1.2-0.3,1.9c0,0.4,0.1,0.9,0.3,1.2c0.2,0.2,0.6,0.4,0.9,0.3c0.2,0,0.4,0,0.7-0.1l0.7-0.2
	l-0.6,3.1c-0.4,0.2-0.8,0.3-1.2,0.4c-0.4,0.1-0.9,0.2-1.3,0.2c-1,0.1-1.9-0.3-2.6-0.9c-0.6-0.7-0.9-1.7-0.7-2.6l-0.1-0.1
	c-0.9,1.1-2,2.1-3.3,2.7c-1.6,0.7-3.4,1-5.2,0.9c-1,0-2-0.1-3-0.4c-0.9-0.2-1.7-0.6-2.4-1.2c-0.7-0.6-1.3-1.3-1.6-2.2
	c-0.4-1-0.6-2.2-0.6-3.3c-0.1-1.5,0.3-3.1,1.2-4.4c0.8-1,1.8-1.8,3-2.4c1.3-0.6,2.7-0.9,4.1-1.1c1.5-0.2,3-0.4,4.3-0.5
	c1.1-0.1,2-0.2,2.8-0.3c0.7-0.1,1.4-0.3,2-0.6c0.5-0.2,0.9-0.6,1.2-1.1c0.3-0.6,0.4-1.3,0.4-2c0-0.6-0.1-1.2-0.5-1.6
	c-0.3-0.4-0.7-0.8-1.2-1c-0.5-0.3-1.1-0.4-1.6-0.5c-0.6-0.1-1.2-0.1-1.7-0.1c-0.8,0-1.6,0.1-2.3,0.2c-0.7,0.1-1.4,0.4-2.1,0.8
	c-0.6,0.4-1.1,0.8-1.6,1.4c-0.4,0.6-0.7,1.3-0.8,2.1h-4.1C686.6,148.1,687,146.9,687.8,145.8z M688.9,163.1c0.9,0.6,2,0.9,3.2,0.9
	c3.3,0,5.6-1.1,7.1-3.3c0.7-0.9,1.1-2,1.4-3.1c0.2-1.1,0.5-2.2,0.8-3.4h-0.1c-0.7,0.5-1.4,0.8-2.2,0.9c-0.9,0.2-1.8,0.3-2.9,0.4
	s-2,0.2-3,0.4c-0.9,0.1-1.9,0.4-2.8,0.7c-0.8,0.3-1.5,0.8-2,1.4c-0.6,0.7-0.9,1.6-0.8,2.5C687.5,161.5,688,162.5,688.9,163.1z"/>
<path d="M725,141.8l-0.8,3.7h-5l-3.1,14.8c0,0.3-0.1,0.6-0.1,0.8c0,0.3-0.1,0.6,0,0.8c-0.1,0.6,0.2,1.1,0.8,1.3
	c0.5,0.3,1.1,0.4,1.7,0.4c0.4,0,0.8,0,1.2-0.1c0.4-0.1,0.8-0.2,1.2-0.3l-0.7,3.8c-0.5,0.1-1,0.1-1.5,0.2c-0.5,0.1-1,0.1-1.5,0.1
	c-0.7,0-1.5-0.1-2.2-0.2c-0.6-0.1-1.2-0.3-1.8-0.6c-0.5-0.3-0.9-0.7-1.2-1.2c-0.3-0.6-0.5-1.3-0.5-2c0-0.3,0-0.7,0.1-1
	c0-0.3,0.1-0.7,0.2-1.1l3.3-15.7h-4.2l0.8-3.7h4.2l1.6-7.5h4.2l-1.5,7.5H725z"/>
<path d="M733.7,141.8l-5.3,25.2h-4.1l5.2-25.2L733.7,141.8z M730.5,137.3l1.1-5.1h4.2l-1.1,5.1H730.5z"/>
<path d="M737.2,151.1c0.6-1.9,1.5-3.6,2.8-5.1c1.2-1.5,2.7-2.7,4.4-3.5c1.8-0.9,3.9-1.4,5.9-1.3c3.4,0,6,0.9,7.8,2.7
	s2.7,4.4,2.7,7.8c0,2-0.3,4-0.9,5.9c-0.6,1.9-1.5,3.6-2.7,5.1c-1.2,1.5-2.7,2.7-4.4,3.5c-1.8,0.9-3.9,1.4-5.9,1.3
	c-1.5,0-3-0.2-4.5-0.8c-2.5-0.9-4.5-3-5.4-5.5c-0.5-1.3-0.7-2.8-0.7-4.2C736.2,155,736.5,153,737.2,151.1z M742.2,162
	c1.4,1.3,3.3,2,5.2,1.9c1.4,0,2.8-0.4,4-1.2c1.2-0.8,2.2-1.8,2.9-3c0.8-1.2,1.4-2.5,1.8-3.9c0.4-1.3,0.6-2.6,0.6-3.9
	c0-0.9-0.1-1.9-0.4-2.8c-0.5-1.7-1.7-3.1-3.3-3.8c-0.9-0.4-2-0.6-3-0.6c-1.5,0-2.9,0.4-4.2,1.2c-1.2,0.8-2.2,1.8-3,3
	c-0.8,1.2-1.4,2.5-1.8,3.9c-0.4,1.3-0.6,2.7-0.6,4.1C740.3,158.8,740.9,160.6,742.2,162L742.2,162z"/>
<path d="M772.5,141.8l-0.8,3.8h0.1c1-1.4,2.4-2.6,4-3.3c1.6-0.7,3.3-1.1,5-1.1c2.4,0,4.1,0.5,5.3,1.6s1.7,2.7,1.7,4.9
	c0,0.7-0.1,1.4-0.2,2.1c-0.1,0.9-0.3,1.8-0.5,2.8L784,167h-4.1l3.1-14.7c0-0.3,0.1-0.6,0.1-0.9s0.1-0.7,0.2-1.1s0.1-0.7,0.2-1.1
	c0-0.3,0.1-0.6,0.1-0.9c0.1-1-0.4-2.1-1.3-2.7c-0.9-0.6-2-0.9-3.1-0.9c-1.2,0-2.3,0.3-3.4,0.8c-1.1,0.5-2,1.2-2.8,2.1
	c-0.8,0.7-1.4,1.5-1.8,2.4c-0.4,0.9-0.8,1.9-1,2.9l-2.9,13.9h-4.1l5.3-25.2L772.5,141.8z"/>
<path d="M480.3,183.6l-6.4,30.9h18.4l-0.8,3.9h-23.1l7.3-34.8L480.3,183.6z"/>
<path d="M496.9,202.6c0.6-1.9,1.5-3.6,2.8-5.1c1.2-1.5,2.7-2.7,4.4-3.5c1.8-0.9,3.9-1.4,5.9-1.3c3.4,0,6,0.9,7.8,2.7
	c1.8,1.8,2.7,4.4,2.7,7.8c0,2-0.3,4-0.9,5.9c-0.6,1.9-1.5,3.6-2.7,5.1c-1.2,1.5-2.7,2.7-4.4,3.5c-1.8,0.9-3.9,1.4-5.9,1.3
	c-1.5,0-3-0.2-4.5-0.8c-2.5-0.9-4.5-2.9-5.4-5.5c-0.5-1.4-0.7-2.8-0.7-4.2C496,206.5,496.3,204.5,496.9,202.6z M501.9,213.5
	c1.4,1.3,3.3,2,5.2,1.9c1.4,0,2.8-0.4,4-1.2c1.2-0.8,2.2-1.8,2.9-2.9c0.8-1.2,1.4-2.5,1.8-3.9c0.4-1.3,0.6-2.6,0.6-4
	c0-0.9-0.1-1.9-0.4-2.8c-0.5-1.7-1.7-3.1-3.3-3.8c-0.9-0.4-2-0.6-3-0.6c-1.5,0-2.9,0.4-4.2,1.2c-1.2,0.8-2.2,1.8-3,2.9
	c-0.8,1.2-1.4,2.5-1.8,3.9c-0.4,1.3-0.6,2.7-0.6,4.1C500,210.3,500.6,212.1,501.9,213.5L501.9,213.5z"/>
<path d="M544.6,218.5c-0.3,1.1-0.6,2.1-1,3.1c-0.8,2.3-2.4,4.2-4.5,5.4c-2.2,1.1-4.6,1.7-7,1.6c-1.3,0-2.5-0.1-3.7-0.4
	c-1.1-0.3-2.2-0.7-3.2-1.4c-0.9-0.6-1.7-1.5-2.2-2.4c-0.6-1.1-0.9-2.3-0.9-3.6h4.1c0,1.4,0.8,2.7,2.1,3.3c0.6,0.3,1.3,0.5,2,0.6
	c0.8,0.1,1.5,0.2,2.3,0.2c1.4,0.1,2.7-0.2,3.9-0.9c1-0.6,1.9-1.4,2.5-2.3c0.7-1,1.2-2.1,1.5-3.2c0.4-1.2,0.7-2.4,1-3.7l-0.1-0.1
	c-0.8,1.3-2,2.3-3.4,2.9c-1.4,0.6-2.9,0.9-4.4,0.9c-1.4,0-2.8-0.2-4.1-0.8c-1.2-0.5-2.2-1.2-3-2.1c-0.8-1-1.4-2.1-1.8-3.3
	c-0.4-1.4-0.6-2.8-0.6-4.2c0-1.9,0.3-3.8,0.9-5.6c0.6-1.8,1.5-3.5,2.6-5c1.1-1.5,2.5-2.7,4.1-3.6c1.7-0.9,3.6-1.4,5.5-1.4
	c0.9,0,1.9,0.1,2.8,0.4c0.8,0.2,1.6,0.6,2.4,1c0.7,0.4,1.3,1,1.8,1.6c0.5,0.6,0.8,1.4,1,2.1v0.1h0.1l0.8-4.6h3.9l-4.5,21.6
	C545.2,216.1,544.9,217.3,544.6,218.5z M528.7,210.8c0.2,0.8,0.6,1.5,1.1,2.1c0.5,0.6,1.2,1.1,1.9,1.5c0.9,0.4,1.8,0.6,2.7,0.6
	c1.4,0,2.9-0.4,4.1-1.2c1.2-0.8,2.1-1.8,2.9-3c0.8-1.2,1.3-2.5,1.7-3.9c0.4-1.3,0.5-2.6,0.6-4c0.1-1.7-0.5-3.4-1.6-4.8
	c-1.3-1.3-3.1-2-4.9-1.8c-1.4,0-2.7,0.4-3.8,1.2c-1.1,0.8-2,1.8-2.8,3c-0.8,1.2-1.3,2.5-1.7,3.9c-0.4,1.2-0.6,2.5-0.6,3.8
	C528.3,209.1,528.4,209.9,528.7,210.8L528.7,210.8z"/>
<path d="M560.3,193.2l-5.3,25.2h-4.1l5.2-25.2H560.3z M557.1,188.7l1.1-5.1h4.2l-1.1,5.1H557.1z"/>
<path d="M577.8,197.4c-1.1-0.8-2.4-1.1-3.8-1.1c-0.6,0-1.3,0.1-1.9,0.1c-0.6,0.1-1.2,0.3-1.7,0.5c-0.5,0.2-0.9,0.6-1.2,1
	c-0.3,0.5-0.5,1-0.5,1.6c0,0.6,0.2,1.1,0.6,1.5c0.4,0.5,0.9,0.9,1.5,1.2c0.7,0.4,1.4,0.7,2.1,1l2.4,1c0.8,0.4,1.7,0.7,2.5,1.2
	c0.8,0.4,1.5,0.9,2.1,1.4c0.6,0.5,1.1,1.2,1.5,1.9c0.4,0.8,0.6,1.7,0.6,2.6c0,1.3-0.3,2.5-0.9,3.6c-0.6,1-1.4,1.8-2.4,2.4
	c-1,0.6-2.1,1.1-3.3,1.3c-1.2,0.3-2.4,0.4-3.7,0.4c-1.4,0-2.7-0.1-4-0.4c-1.2-0.2-2.2-0.7-3.2-1.4c-0.9-0.7-1.6-1.6-2.1-2.6
	c-0.6-1.3-0.8-2.7-0.8-4.1h4.1c-0.1,0.8,0.1,1.6,0.4,2.3c0.3,0.6,0.8,1.1,1.4,1.5c0.6,0.4,1.4,0.7,2.1,0.8c0.8,0.2,1.7,0.2,2.5,0.2
	c0.7,0,1.3-0.1,2-0.2c0.6-0.1,1.3-0.3,1.8-0.7c0.5-0.3,1-0.7,1.3-1.2c0.4-0.5,0.5-1.2,0.5-1.8c0-0.6-0.2-1.1-0.6-1.6
	c-0.4-0.5-0.9-0.9-1.5-1.2c-0.7-0.4-1.4-0.7-2.1-1c-0.8-0.3-1.6-0.6-2.4-1s-1.7-0.7-2.5-1.1c-0.8-0.4-1.5-0.8-2.2-1.4
	c-0.6-0.5-1.1-1.2-1.5-1.9c-0.4-0.8-0.6-1.6-0.6-2.5c0-1.1,0.3-2.2,0.8-3.1c0.5-0.9,1.3-1.7,2.1-2.3c0.9-0.6,1.9-1.1,3-1.4
	c1.1-0.3,2.3-0.5,3.4-0.5c1.2,0,2.3,0.1,3.5,0.4c1.1,0.3,2.1,0.7,3,1.4c0.9,0.7,1.6,1.5,2.2,2.5c0.6,1.2,0.9,2.4,0.8,3.7h-4.1
	C579.4,199.4,578.8,198.2,577.8,197.4z"/>
<path d="M601.2,193.2l-0.8,3.7h-5l-3.1,14.8c0,0.3-0.1,0.6-0.1,0.8c0,0.3,0,0.5,0,0.8c-0.1,0.6,0.2,1.1,0.8,1.4
	c0.5,0.2,1.1,0.4,1.7,0.4c0.4,0,0.8,0,1.2-0.1c0.4-0.1,0.8-0.2,1.2-0.3l-0.7,3.8l-1.5,0.2c-0.5,0-1,0.1-1.5,0.1
	c-0.7,0-1.5-0.1-2.2-0.2c-0.6-0.1-1.2-0.3-1.8-0.6c-0.5-0.3-0.9-0.7-1.2-1.2c-0.3-0.6-0.5-1.3-0.5-2c0-0.3,0-0.7,0.1-1
	c0-0.3,0.1-0.7,0.2-1.1l3.3-15.7H587l0.8-3.7h4.2l1.6-7.5h4.1l-1.6,7.5L601.2,193.2z"/>
<path d="M610,193.2l-5.3,25.2h-4.1l5.2-25.2H610z M606.8,188.7l1.1-5.1h4.1l-1.1,5.1H606.8z"/>
<path d="M630.5,197.6c-1.1-0.9-2.5-1.4-3.9-1.3c-1.5,0-2.9,0.3-4.2,1.1c-1.2,0.7-2.3,1.6-3.1,2.8c-0.8,1.2-1.5,2.5-1.9,3.8
	c-0.4,1.4-0.6,2.8-0.6,4.2c0,0.9,0.1,1.9,0.3,2.8c0.2,0.8,0.5,1.6,1,2.3c0.5,0.7,1.2,1.2,1.9,1.6c0.9,0.4,1.9,0.6,3,0.6
	c1.6,0,3.3-0.4,4.6-1.4c1.3-1,2.2-2.3,2.8-3.8h4.1c-0.6,2.6-2,4.9-4.1,6.5c-2.1,1.6-4.7,2.3-7.4,2.3c-3.4,0-6-0.9-7.8-2.8
	s-2.6-4.5-2.6-8c0-2,0.3-3.9,0.9-5.8c0.6-1.8,1.5-3.5,2.7-4.9c1.2-1.5,2.7-2.6,4.4-3.5c1.9-0.9,3.9-1.3,6-1.3
	c2.4-0.1,4.9,0.6,6.8,2.1c1.7,1.4,2.6,3.6,2.7,6.5h-4.2C632,199.9,631.5,198.5,630.5,197.6z"/>
<path d="M653.7,197.4c-1.1-0.8-2.4-1.1-3.8-1.1c-0.6,0-1.3,0.1-1.9,0.1c-0.6,0.1-1.2,0.3-1.7,0.5c-0.5,0.2-0.9,0.6-1.2,1
	c-0.3,0.5-0.5,1-0.5,1.6c0,0.6,0.2,1.1,0.6,1.5c0.4,0.5,0.9,0.9,1.5,1.2c0.7,0.4,1.4,0.7,2.2,1l2.4,1c0.8,0.4,1.7,0.7,2.5,1.2
	c0.8,0.4,1.5,0.9,2.1,1.4c0.6,0.5,1.1,1.2,1.5,1.9c0.4,0.8,0.6,1.7,0.6,2.6c0,1.3-0.3,2.5-0.9,3.6c-0.6,1-1.4,1.8-2.4,2.4
	c-1,0.6-2.1,1.1-3.3,1.3c-1.2,0.3-2.4,0.4-3.7,0.4c-1.3,0-2.7-0.1-4-0.4c-1.2-0.2-2.2-0.7-3.2-1.4c-0.9-0.7-1.6-1.6-2.1-2.6
	c-0.6-1.3-0.8-2.7-0.8-4.1h4.1c-0.1,0.8,0.1,1.6,0.4,2.3c0.3,0.6,0.8,1.2,1.4,1.5c0.6,0.4,1.4,0.7,2.1,0.8c0.8,0.2,1.7,0.2,2.5,0.2
	c0.7,0,1.3-0.1,2-0.2c0.7-0.1,1.3-0.3,1.9-0.7c0.5-0.3,1-0.7,1.3-1.2c0.4-0.5,0.5-1.2,0.5-1.8c0-0.6-0.2-1.1-0.6-1.6
	c-0.4-0.5-1-0.9-1.5-1.2c-0.7-0.4-1.4-0.7-2.1-1c-0.8-0.3-1.6-0.6-2.4-1s-1.7-0.7-2.5-1.1c-0.8-0.4-1.5-0.8-2.1-1.4
	c-0.6-0.5-1.1-1.2-1.5-1.9c-0.4-0.8-0.6-1.6-0.6-2.5c0-1.1,0.3-2.2,0.8-3.1c0.5-0.9,1.3-1.7,2.1-2.3c0.9-0.6,1.9-1.1,3-1.4
	c1.1-0.3,2.3-0.5,3.4-0.5c1.2,0,2.3,0.1,3.5,0.4c1.1,0.3,2.1,0.7,3,1.4c0.9,0.7,1.6,1.5,2.2,2.5c0.6,1.2,0.9,2.4,0.8,3.7h-4.1
	C655.3,199.4,654.7,198.1,653.7,197.4z"/>
<path d="M701.9,215.9c-2.5,2.2-6,3.3-10.3,3.3c-4.8,0-8.5-1.3-11-4c-2.6-2.7-3.9-6.4-3.9-11.2c0-2.7,0.4-5.5,1.3-8.1
	c0.8-2.5,2.1-4.8,3.8-6.8c3.5-4.1,8.6-6.5,14-6.4c1.8,0,3.5,0.2,5.2,0.8c1.5,0.5,3,1.2,4.2,2.2c1.2,1,2.2,2.3,2.8,3.8
	c0.7,1.7,1,3.5,1,5.3h-4.6c0-2.7-0.8-4.8-2.4-6.1c-1.8-1.4-4-2.1-6.2-2c-2.2,0-4.4,0.5-6.4,1.5c-1.8,1-3.3,2.4-4.5,4
	c-1.2,1.7-2.1,3.5-2.7,5.5c-0.6,2-0.9,4.1-0.9,6.3c0,1.6,0.2,3.1,0.6,4.6c0.4,1.3,1,2.5,1.9,3.6c0.9,1,2,1.8,3.2,2.3
	c1.4,0.6,3,0.9,4.6,0.8c2.5,0.1,5-0.7,7-2.3c1.9-1.7,3.2-3.9,3.8-6.4h4.7C706.3,210.3,704.5,213.5,701.9,215.9z"/>
<path d="M711.8,202.6c0.6-1.9,1.5-3.6,2.8-5.1c1.2-1.4,2.7-2.6,4.4-3.5c1.8-0.9,3.9-1.4,5.9-1.3c3.4,0,6,0.9,7.8,2.7
	c1.8,1.8,2.7,4.4,2.7,7.8c0,2-0.3,4-0.9,5.9c-0.6,1.9-1.5,3.6-2.7,5.1c-1.2,1.5-2.7,2.7-4.4,3.5c-1.8,0.9-3.9,1.4-5.9,1.3
	c-1.5,0-3-0.2-4.5-0.8c-2.5-0.9-4.5-2.9-5.4-5.5c-0.5-1.4-0.7-2.8-0.7-4.2C710.8,206.5,711.2,204.5,711.8,202.6z M716.8,213.5
	c1.4,1.3,3.3,2,5.2,1.9c1.4,0,2.8-0.4,4-1.2c1.2-0.8,2.2-1.8,2.9-2.9c0.8-1.2,1.4-2.5,1.8-3.9c0.4-1.3,0.6-2.6,0.6-4
	c0-0.9-0.1-1.9-0.4-2.8c-0.2-0.8-0.7-1.6-1.2-2.3c-0.6-0.6-1.3-1.2-2.1-1.5c-0.9-0.4-2-0.6-3-0.6c-1.5,0-2.9,0.4-4.2,1.2
	c-1.2,0.8-2.2,1.8-3,2.9c-0.8,1.2-1.4,2.5-1.8,3.9c-0.4,1.3-0.6,2.7-0.6,4.1C714.9,210.3,715.5,212.1,716.8,213.5z"/>
<path d="M747,193.2l-1.2,5.4h0.1c0.9-1.7,2.2-3.1,3.7-4.3c1.6-1.2,3.5-1.8,5.4-1.7c0.2,0,0.5,0,0.7,0c0.2,0,0.5,0,0.7,0l-1,4.4
	c-0.2,0-0.4,0-0.6,0h-0.6c-0.5,0-0.9,0-1.3,0c-0.4,0-0.8,0.1-1.2,0.2c-1.1,0.3-2.1,0.8-3,1.5c-0.9,0.7-1.7,1.6-2.3,2.6
	c-0.6,0.9-1,1.8-1.3,2.9c-0.3,1.1-0.6,2.1-0.8,3.1l-2.4,11.2h-4.1l5.2-25.2L747,193.2z"/>
<path d="M763.2,193.2l-0.9,3.6h0.1c1-1.4,2.3-2.6,3.8-3.3c1.4-0.6,3-0.9,4.5-0.9c1.5,0,2.9,0.2,4.3,0.8c1.2,0.5,2.2,1.2,3.1,2.1
	c0.9,0.9,1.5,2.1,1.9,3.3c0.4,1.4,0.6,2.8,0.6,4.2c0,2-0.4,3.9-1,5.7c-0.6,1.9-1.5,3.6-2.7,5.1c-1.2,1.5-2.7,2.8-4.4,3.7
	c-1.8,1-3.9,1.4-5.9,1.4c-0.8,0-1.6-0.1-2.4-0.2c-0.8-0.1-1.6-0.4-2.3-0.7c-0.7-0.3-1.4-0.8-2-1.4c-0.6-0.6-1-1.3-1.2-2.1h-0.1
	l-2.6,13.5h-4l7.3-34.8H763.2z M774.9,198.1c-1-1.2-2.7-1.8-5-1.8c-1.5,0-3,0.4-4.2,1.2c-1.2,0.8-2.3,1.9-3.1,3.1
	c-0.8,1.2-1.5,2.6-1.9,4c-0.4,1.4-0.6,2.8-0.7,4.2c-0.1,1.7,0.5,3.4,1.6,4.7c1.2,1.3,2.9,2,4.7,1.9c1.5,0,3-0.4,4.3-1.1
	c1.2-0.8,2.3-1.8,3.1-2.9c0.9-1.2,1.5-2.6,1.9-4c0.4-1.4,0.6-2.8,0.6-4.3C776.5,201.2,776,199.5,774.9,198.1z"/>
</svg>
